<svg width="365" height="382" viewBox="0 0 365 382" fill="none" xmlns="http://www.w3.org/2000/svg">
<mask id="path-1-inside-1_212_14" fill="white">
<path d="M106.322 181.123C82.7106 181.123 59.0927 180.676 35.5022 181.309C23.2131 181.639 17.4732 176.673 14.977 164.785C11.0613 146.143 6.19917 127.686 1.08331 109.325C-2.11924 97.8228 1.72794 92.8491 13.3038 92.9386C25.5585 93.0349 37.8338 93.3651 50.0748 92.856C59.5247 92.4639 64.38 96.7497 66.4167 105.534C68.1586 113.053 70.2296 120.497 72.1292 127.974C72.8973 131.015 73.1236 134.916 77.3479 134.64C81.5106 134.372 81.5517 130.265 81.9837 127.293C85.3029 104.805 88.4848 82.2964 91.6394 59.7807C93.8476 44.0204 96.0283 28.2601 98.0651 12.4722C99.5875 0.633082 105.471 -1.27247 116.999 0.646838C124.975 1.97453 141.173 5.03581 148.689 6.00578C170.784 8.85378 170.476 21.9312 173.28 44.385C178.232 84.0231 186.619 123.235 193.442 162.639C195.89 176.796 192.489 180.986 178.513 181.068C154.449 181.206 130.385 181.103 106.322 181.11V181.123Z"/>
</mask>
<path d="M106.322 181.123C82.7106 181.123 59.0927 180.676 35.5022 181.309C23.2131 181.639 17.4732 176.673 14.977 164.785C11.0613 146.143 6.19917 127.686 1.08331 109.325C-2.11924 97.8228 1.72794 92.8491 13.3038 92.9386C25.5585 93.0349 37.8338 93.3651 50.0748 92.856C59.5247 92.4639 64.38 96.7497 66.4167 105.534C68.1586 113.053 70.2296 120.497 72.1292 127.974C72.8973 131.015 73.1236 134.916 77.3479 134.64C81.5106 134.372 81.5517 130.265 81.9837 127.293C85.3029 104.805 88.4848 82.2964 91.6394 59.7807C93.8476 44.0204 96.0283 28.2601 98.0651 12.4722C99.5875 0.633082 105.471 -1.27247 116.999 0.646838C124.975 1.97453 141.173 5.03581 148.689 6.00578C170.784 8.85378 170.476 21.9312 173.28 44.385C178.232 84.0231 186.619 123.235 193.442 162.639C195.89 176.796 192.489 180.986 178.513 181.068C154.449 181.206 130.385 181.103 106.322 181.11V181.123Z" stroke="#0D0D0D" stroke-width="8" mask="url(#path-1-inside-1_212_14)"/>
<mask id="path-2-inside-2_212_14" fill="white">
<path d="M229.04 310.384C224.796 340.721 242.722 362.109 275.152 366.092C303.838 369.614 330.205 349.919 333.346 322.615C337.42 287.222 309.982 253.747 272.635 249.737C264.646 248.877 263.02 245.884 262.876 238.929C262.76 233.398 264.831 232.408 269.686 232.786C319.953 236.721 361.086 284.731 344.97 337.007C334.917 369.621 300.608 387.755 265.359 380.366C230.954 373.157 210.134 345.406 213.473 310.638C214.077 304.371 213.103 300.313 207.98 295.642C190.075 279.297 182.497 258.666 191.097 235.277C199.641 212.025 218.342 200.53 242.687 199.738C291.144 198.163 329.938 218.601 362.169 253.747C367.347 259.395 363.308 261.115 360.263 264.651C355.737 269.913 353.254 267.87 349.421 263.646C320.673 231.988 285.781 213.758 242.104 216.462C216.347 218.051 200.389 236.797 204.14 259.656C205.052 265.229 207.452 270.065 210.504 274.584C218.644 286.651 220.42 286.664 231.448 277.391C247.789 263.646 266.292 258.494 286.94 265.6C300.614 270.312 306.594 279.792 305.703 293.165C304.88 305.465 296.232 314.814 282.668 317.504C268.164 320.386 253.968 318.46 240.033 313.94C236.399 312.764 232.771 311.581 229.04 310.377V310.384ZM236.358 294.094C250.745 301.228 265.064 303.298 279.815 300.581C285.383 299.556 291.603 296.646 290.863 289.175C290.225 282.723 284.835 280.501 279.157 279.723C262.993 277.515 248.516 280.604 236.358 294.087V294.094Z"/>
</mask>
<path d="M229.04 310.384C224.796 340.721 242.722 362.109 275.152 366.092C303.838 369.614 330.205 349.919 333.346 322.615C337.42 287.222 309.982 253.747 272.635 249.737C264.646 248.877 263.02 245.884 262.876 238.929C262.76 233.398 264.831 232.408 269.686 232.786C319.953 236.721 361.086 284.731 344.97 337.007C334.917 369.621 300.608 387.755 265.359 380.366C230.954 373.157 210.134 345.406 213.473 310.638C214.077 304.371 213.103 300.313 207.98 295.642C190.075 279.297 182.497 258.666 191.097 235.277C199.641 212.025 218.342 200.53 242.687 199.738C291.144 198.163 329.938 218.601 362.169 253.747C367.347 259.395 363.308 261.115 360.263 264.651C355.737 269.913 353.254 267.87 349.421 263.646C320.673 231.988 285.781 213.758 242.104 216.462C216.347 218.051 200.389 236.797 204.14 259.656C205.052 265.229 207.452 270.065 210.504 274.584C218.644 286.651 220.42 286.664 231.448 277.391C247.789 263.646 266.292 258.494 286.94 265.6C300.614 270.312 306.594 279.792 305.703 293.165C304.88 305.465 296.232 314.814 282.668 317.504C268.164 320.386 253.968 318.46 240.033 313.94C236.399 312.764 232.771 311.581 229.04 310.377V310.384ZM236.358 294.094C250.745 301.228 265.064 303.298 279.815 300.581C285.383 299.556 291.603 296.646 290.863 289.175C290.225 282.723 284.835 280.501 279.157 279.723C262.993 277.515 248.516 280.604 236.358 294.087V294.094Z" stroke="#0D0D0D" stroke-width="8" mask="url(#path-2-inside-2_212_14)"/>
<mask id="path-3-inside-3_212_14" fill="white">
<path d="M241.323 114.491C242.434 120.517 244.347 125.718 247.063 130.086C249.778 134.455 253.399 137.887 257.932 140.385C262.465 142.882 268.123 144.161 274.919 144.209H275.344C280.693 144.251 285.617 143.418 290.108 141.712C294.593 140.006 298.447 137.427 301.643 133.973C304.846 130.52 307.369 126.117 309.221 120.765C311.066 115.413 312.012 109.112 312.067 101.868L312.519 40.5533C312.54 37.0793 312.787 33.3783 313.246 29.4709C313.713 25.5566 314.494 22.0207 315.605 18.8356C316.716 15.6505 318.246 13.0158 320.214 10.9314C322.182 8.85385 324.685 7.81508 327.723 7.83572C331.035 7.85636 333.703 8.86075 335.712 10.8282C337.721 12.7957 339.258 15.3547 340.321 18.471C341.383 21.6011 342.076 25.1232 342.412 29.0375C342.741 32.9518 342.892 36.8661 342.872 40.7803L342.446 98.8341C342.33 114.484 340.074 127.197 335.664 136.945C331.255 146.7 325.741 154.301 319.123 159.757C312.506 165.226 305.223 168.933 297.261 170.908C289.292 172.868 281.776 173.831 274.692 173.783C267.327 173.728 259.742 172.628 251.959 170.468C244.175 168.307 237.085 164.448 230.693 158.897C224.309 153.338 219.117 145.881 215.147 136.498C211.176 127.115 209.235 115.117 209.345 100.478L209.791 39.8103C209.825 35.614 210.031 31.514 210.422 27.5309C210.813 23.541 211.56 20.0326 212.671 16.9989C213.768 13.9582 215.38 11.5161 217.492 9.65185C219.597 7.77382 222.313 6.85202 225.639 6.87265C228.526 6.89329 230.94 7.96644 232.874 10.0852C234.815 12.204 236.31 14.8869 237.366 18.1546C238.429 21.4222 239.162 25.02 239.567 28.9343C239.972 32.8555 240.164 36.5565 240.136 40.0305L239.732 94.6103C239.677 101.854 240.205 108.493 241.323 114.512V114.491Z"/>
</mask>
<path d="M241.323 114.491C242.434 120.517 244.347 125.718 247.063 130.086C249.778 134.455 253.399 137.887 257.932 140.385C262.465 142.882 268.123 144.161 274.919 144.209H275.344C280.693 144.251 285.617 143.418 290.108 141.712C294.593 140.006 298.447 137.427 301.643 133.973C304.846 130.52 307.369 126.117 309.221 120.765C311.066 115.413 312.012 109.112 312.067 101.868L312.519 40.5533C312.54 37.0793 312.787 33.3783 313.246 29.4709C313.713 25.5566 314.494 22.0207 315.605 18.8356C316.716 15.6505 318.246 13.0158 320.214 10.9314C322.182 8.85385 324.685 7.81508 327.723 7.83572C331.035 7.85636 333.703 8.86075 335.712 10.8282C337.721 12.7957 339.258 15.3547 340.321 18.471C341.383 21.6011 342.076 25.1232 342.412 29.0375C342.741 32.9518 342.892 36.8661 342.872 40.7803L342.446 98.8341C342.33 114.484 340.074 127.197 335.664 136.945C331.255 146.7 325.741 154.301 319.123 159.757C312.506 165.226 305.223 168.933 297.261 170.908C289.292 172.868 281.776 173.831 274.692 173.783C267.327 173.728 259.742 172.628 251.959 170.468C244.175 168.307 237.085 164.448 230.693 158.897C224.309 153.338 219.117 145.881 215.147 136.498C211.176 127.115 209.235 115.117 209.345 100.478L209.791 39.8103C209.825 35.614 210.031 31.514 210.422 27.5309C210.813 23.541 211.56 20.0326 212.671 16.9989C213.768 13.9582 215.38 11.5161 217.492 9.65185C219.597 7.77382 222.313 6.85202 225.639 6.87265C228.526 6.89329 230.94 7.96644 232.874 10.0852C234.815 12.204 236.31 14.8869 237.366 18.1546C238.429 21.4222 239.162 25.02 239.567 28.9343C239.972 32.8555 240.164 36.5565 240.136 40.0305L239.732 94.6103C239.677 101.854 240.205 108.493 241.323 114.512V114.491Z" stroke="#0D0D0D" stroke-width="8" mask="url(#path-3-inside-3_212_14)"/>
<mask id="path-4-inside-4_212_14" fill="white">
<path d="M119.269 296.254C122.657 301.51 125.715 305.562 128.445 308.416C131.174 311.278 133.89 312.709 136.557 312.723C139.239 312.75 140.933 309.627 141.646 303.367C142.366 297.107 142.777 286.657 142.887 272.039L142.942 233.983C142.956 230.846 143.244 227.792 143.792 224.806C144.327 221.835 145.205 219.193 146.419 216.882C147.626 214.577 149.196 212.72 151.144 211.316C153.085 209.92 155.54 209.225 158.523 209.246C161.499 209.259 163.981 210.112 165.977 211.756C167.973 213.421 169.564 215.678 170.729 218.512C171.902 221.353 172.732 224.724 173.219 228.604C173.713 232.484 173.946 236.749 173.911 241.365L173.102 350.82C173.075 354.26 172.718 357.5 172.026 360.554C171.333 363.602 170.16 366.326 168.508 368.699C166.855 371.066 164.605 372.957 161.773 374.354C158.941 375.75 155.361 376.438 151.048 376.404C147.626 376.376 144.581 375.977 141.906 375.221C139.232 374.443 136.674 373.205 134.24 371.471C131.798 369.738 129.391 367.399 127.032 364.468C124.68 361.545 122.095 357.83 119.31 353.331L73.8711 280.707C70.7851 275.905 67.8363 272.039 65.0315 269.109C62.2199 266.178 59.7031 264.706 57.4743 264.685C55.6913 264.671 54.2649 266.453 53.1951 270.024C52.1253 273.594 51.5561 279.778 51.4944 288.591L51.0624 347.243C51.0486 349.623 50.8086 352.306 50.3354 355.292C49.8691 358.263 49.0668 361.029 47.9352 363.553C46.8037 366.085 45.2196 368.238 43.2034 370.006C41.1804 371.788 38.5265 372.655 35.2622 372.627C30.2012 372.593 26.4295 370.33 23.9333 365.837C21.4439 361.345 20.2164 355.587 20.2781 348.571L21.0667 240.016C21.101 235.985 21.2382 231.885 21.4919 227.703C21.7525 223.527 22.5617 219.771 23.9195 216.421C25.2911 213.07 27.4307 210.367 30.3384 208.296C33.2529 206.226 37.3949 205.214 42.744 205.256C46.6117 205.283 49.924 205.49 52.6671 205.882C55.4239 206.274 58.3452 207.677 61.4518 210.092C63.9686 211.901 66.6637 214.715 69.5439 218.539C72.4173 222.371 76.0587 227.806 80.4682 234.85L119.297 296.481V296.254H119.269Z"/>
</mask>
<path d="M119.269 296.254C122.657 301.51 125.715 305.562 128.445 308.416C131.174 311.278 133.89 312.709 136.557 312.723C139.239 312.75 140.933 309.627 141.646 303.367C142.366 297.107 142.777 286.657 142.887 272.039L142.942 233.983C142.956 230.846 143.244 227.792 143.792 224.806C144.327 221.835 145.205 219.193 146.419 216.882C147.626 214.577 149.196 212.72 151.144 211.316C153.085 209.92 155.54 209.225 158.523 209.246C161.499 209.259 163.981 210.112 165.977 211.756C167.973 213.421 169.564 215.678 170.729 218.512C171.902 221.353 172.732 224.724 173.219 228.604C173.713 232.484 173.946 236.749 173.911 241.365L173.102 350.82C173.075 354.26 172.718 357.5 172.026 360.554C171.333 363.602 170.16 366.326 168.508 368.699C166.855 371.066 164.605 372.957 161.773 374.354C158.941 375.75 155.361 376.438 151.048 376.404C147.626 376.376 144.581 375.977 141.906 375.221C139.232 374.443 136.674 373.205 134.24 371.471C131.798 369.738 129.391 367.399 127.032 364.468C124.68 361.545 122.095 357.83 119.31 353.331L73.8711 280.707C70.7851 275.905 67.8363 272.039 65.0315 269.109C62.2199 266.178 59.7031 264.706 57.4743 264.685C55.6913 264.671 54.2649 266.453 53.1951 270.024C52.1253 273.594 51.5561 279.778 51.4944 288.591L51.0624 347.243C51.0486 349.623 50.8086 352.306 50.3354 355.292C49.8691 358.263 49.0668 361.029 47.9352 363.553C46.8037 366.085 45.2196 368.238 43.2034 370.006C41.1804 371.788 38.5265 372.655 35.2622 372.627C30.2012 372.593 26.4295 370.33 23.9333 365.837C21.4439 361.345 20.2164 355.587 20.2781 348.571L21.0667 240.016C21.101 235.985 21.2382 231.885 21.4919 227.703C21.7525 223.527 22.5617 219.771 23.9195 216.421C25.2911 213.07 27.4307 210.367 30.3384 208.296C33.2529 206.226 37.3949 205.214 42.744 205.256C46.6117 205.283 49.924 205.49 52.6671 205.882C55.4239 206.274 58.3452 207.677 61.4518 210.092C63.9686 211.901 66.6637 214.715 69.5439 218.539C72.4173 222.371 76.0587 227.806 80.4682 234.85L119.297 296.481V296.254H119.269Z" stroke="#0D0D0D" stroke-width="8" mask="url(#path-4-inside-4_212_14)"/>
</svg>
